Coordinates
nRows=150
nColumns=2
inDegrees=yes
endheader
time	ankle_angle_r	
1.6249	 -4.898071	
1.68739	 -4.684448	
1.74989	 -4.669189	
1.81238	 -4.623413	
1.87488	 -4.562378	
1.93738	 -4.669189	
1.99987	 -4.608154	
2.06237	 -4.653931	
2.12486	 -4.653931	
2.18736	 -4.501343	
2.24986	 -4.577637	
2.31235	 -4.562378	
2.37485	 -4.531860	
2.43734	 -4.653931	
2.49984	 -4.623413	
2.56234	 -4.653931	
2.62483	 -4.653931	
2.68733	 -4.516602	
2.74982	 -4.592896	
2.81232	 -4.577637	
2.87482	 -4.623413	
2.93731	 -4.684448	
2.99981	 -4.623413	
3.0623	 -4.745483	
3.1248	 -4.730225	
3.1873	 -4.745483	
3.24979	 -4.791260	
3.31229	 -4.745483	
3.37478	 -4.745483	
3.43728	 -4.852295	
3.49978	 -4.745483	
3.56227	 -4.776001	
3.62477	 -4.821777	
3.68726	 -4.699707	
3.74976	 -4.730225	
3.81226	 -4.730225	
3.87475	 -4.638672	
3.93725	 -4.806519	
3.99974	 -4.760742	
4.06224	 -4.730225	
4.12474	 -4.669189	
4.18723	 -4.531860	
4.24973	 -4.592896	
4.31222	 -4.547119	
4.37472	 -4.531860	
4.43722	 -4.669189	
4.49971	 -4.669189	
4.56221	 -4.638672	
4.6247	 -4.653931	
4.6872	 -4.547119	
4.7497	 -4.592896	
4.81219	 -4.577637	
4.87469	 -4.486084	
4.93718	 -4.653931	
4.99968	 -4.608154	
5.06218	 -4.638672	
5.12467	 -4.684448	
5.18717	 -4.516602	
5.24966	 -4.608154	
5.31216	 -4.638672	
5.37466	 -4.562378	
5.43715	 -4.669189	
5.49965	 -4.608154	
5.56214	 -4.653931	
5.62464	 -4.714966	
5.68714	 -4.531860	
5.74963	 -4.562378	
5.81213	 -4.592896	
5.87462	 -4.516602	
5.93712	 -4.684448	
5.99962	 -4.592896	
6.06211	 -4.623413	
6.12461	 -4.669189	
6.1871	 -4.531860	
6.2496	 -4.577637	
6.3121	 -4.592896	
6.37459	 -4.547119	
6.43709	 -4.684448	
6.49958	 -4.638672	
6.56208	 -4.623413	
6.62458	 -4.684448	
6.68707	 -4.562378	
6.74957	 -4.638672	
6.81206	 -4.684448	
6.87456	 -4.653931	
6.93706	 -4.806519	
6.99955	 -4.730225	
7.06205	 -4.806519	
7.12454	 -4.837036	
7.18704	 -4.760742	
7.24954	 -4.745483	
7.31203	 -4.821777	
7.37453	 -4.745483	
7.43702	 -4.837036	
7.49952	 -4.821777	
7.56202	 -4.776001	
7.62451	 -4.867554	
7.68701	 -4.714966	
7.7495	 -4.776001	
7.812	 -4.760742	
7.8745	 -4.638672	
7.93699	 -4.745483	
7.99949	 -4.806519	
8.06198	 -4.791260	
8.12448	 -4.837036	
8.18698	 -4.760742	
8.24947	 -4.714966	
8.31197	 -4.867554	
8.37446	 -4.730225	
8.43696	 -4.745483	
8.49946	 -4.730225	
8.56195	 -4.623413	
8.62445	 -4.669189	
8.68694	 -4.608154	
8.74944	 -4.531860	
8.81194	 -4.592896	
8.87443	 -4.562378	
8.93693	 -4.577637	
8.99942	 -4.669189	
9.06192	 -4.608154	
9.12442	 -4.638672	
9.18691	 -4.638672	
9.24941	 -4.577637	
9.3119	 -4.577637	
9.3744	 -4.547119	
9.4369	 -4.562378	
9.49939	 -4.669189	
9.56189	 -4.623413	
9.62438	 -4.684448	
9.68688	 -4.653931	
9.74938	 -4.608154	
9.81187	 -4.608154	
9.87437	 -4.547119	
9.93686	 -4.592896	
9.99936	 -4.791260	
10.0619	 -4.638672	
10.1244	 -4.638672	
10.1868	 -4.669189	
10.2493	 -4.531860	
10.3118	 -4.592896	
10.3743	 -4.562378	
10.4368	 -4.531860	
10.4993	 -4.669189	
10.5618	 -4.608154	
10.6243	 -4.669189	
10.6868	 -4.669189	
10.7493	 -4.531860	
10.8118	 -4.592896	
10.8743	 -4.577637	
10.9368	 -4.562378	
